<svg width="156" height="47" viewBox="0 0 156 47" fill="none" xmlns="http://www.w3.org/2000/svg">
<path d="M15 11C15 5.47715 19.4772 1 25 1H145C150.523 1 155 5.47715 155 11V31C155 36.5228 150.523 41 145 41H25C19.4772 41 15 36.5228 15 31V11Z" fill="#080A16" fill-opacity="0.4"/>
<path d="M25 1.5H145V0.5H25V1.5ZM154.5 11V31H155.5V11H154.5ZM145 40.5H25V41.5H145V40.5ZM15.5 31V11H14.5V31H15.5ZM25 40.5C19.7533 40.5 15.5 36.2467 15.5 31H14.5C14.5 36.799 19.201 41.5 25 41.5V40.5ZM154.5 31C154.5 36.2467 150.247 40.5 145 40.5V41.5C150.799 41.5 155.5 36.799 155.5 31H154.5ZM145 1.5C150.247 1.5 154.5 5.7533 154.5 11H155.5C155.5 5.20101 150.799 0.5 145 0.5V1.5ZM25 0.5C19.201 0.5 14.5 5.20101 14.5 11H15.5C15.5 5.7533 19.7533 1.5 25 1.5V0.5Z" fill="white"/>
<path d="M39.912 28.27C39.036 28.27 38.238 28.126 37.518 27.838C36.798 27.55 36.18 27.13 35.664 26.578C35.148 26.026 34.746 25.348 34.458 24.544C34.182 23.728 34.044 22.798 34.044 21.754C34.044 20.71 34.2 19.786 34.512 18.982C34.836 18.166 35.268 17.482 35.808 16.93C36.348 16.378 36.978 15.958 37.698 15.67C38.418 15.382 39.186 15.238 40.002 15.238C40.518 15.238 40.98 15.274 41.388 15.346C41.808 15.418 42.168 15.502 42.468 15.598C42.78 15.694 43.032 15.79 43.224 15.886C43.416 15.982 43.548 16.054 43.62 16.102L43.116 17.542C43.008 17.47 42.852 17.392 42.648 17.308C42.444 17.224 42.21 17.14 41.946 17.056C41.694 16.972 41.412 16.906 41.1 16.858C40.8 16.798 40.494 16.768 40.182 16.768C39.522 16.768 38.928 16.882 38.4 17.11C37.872 17.338 37.422 17.668 37.05 18.1C36.678 18.532 36.39 19.06 36.186 19.684C35.994 20.296 35.898 20.986 35.898 21.754C35.898 22.498 35.982 23.176 36.15 23.788C36.33 24.4 36.594 24.928 36.942 25.372C37.29 25.804 37.722 26.14 38.238 26.38C38.766 26.62 39.378 26.74 40.074 26.74C40.878 26.74 41.544 26.656 42.072 26.488C42.6 26.32 42.996 26.17 43.26 26.038L43.71 27.478C43.626 27.538 43.476 27.616 43.26 27.712C43.044 27.796 42.774 27.88 42.45 27.964C42.126 28.048 41.748 28.12 41.316 28.18C40.884 28.24 40.416 28.27 39.912 28.27ZM54.4484 28C54.2444 27.46 54.0524 26.932 53.8724 26.416C53.6924 25.888 53.5064 25.354 53.3144 24.814H47.6624L46.5284 28H44.7104C45.1904 26.68 45.6404 25.462 46.0604 24.346C46.4804 23.218 46.8884 22.15 47.2844 21.142C47.6924 20.134 48.0944 19.174 48.4904 18.262C48.8864 17.338 49.3004 16.426 49.7324 15.526H51.3344C51.7664 16.426 52.1804 17.338 52.5764 18.262C52.9724 19.174 53.3684 20.134 53.7644 21.142C54.1724 22.15 54.5864 23.218 55.0064 24.346C55.4264 25.462 55.8764 26.68 56.3564 28H54.4484ZM52.8104 23.374C52.4264 22.33 52.0424 21.322 51.6584 20.35C51.2864 19.366 50.8964 18.424 50.4884 17.524C50.0684 18.424 49.6664 19.366 49.2824 20.35C48.9104 21.322 48.5384 22.33 48.1664 23.374H52.8104ZM68.292 21.754C68.292 22.834 68.124 23.776 67.788 24.58C67.452 25.372 66.978 26.032 66.366 26.56C65.754 27.076 65.022 27.466 64.17 27.73C63.318 27.982 62.382 28.108 61.362 28.108C60.858 28.108 60.3 28.084 59.688 28.036C59.088 28 58.542 27.922 58.05 27.802V15.706C58.542 15.586 59.088 15.508 59.688 15.472C60.3 15.424 60.858 15.4 61.362 15.4C62.382 15.4 63.318 15.532 64.17 15.796C65.022 16.048 65.754 16.438 66.366 16.966C66.978 17.482 67.452 18.142 67.788 18.946C68.124 19.738 68.292 20.674 68.292 21.754ZM61.506 26.578C63.162 26.578 64.398 26.158 65.214 25.318C66.03 24.466 66.438 23.278 66.438 21.754C66.438 20.23 66.03 19.048 65.214 18.208C64.398 17.356 63.162 16.93 61.506 16.93C61.014 16.93 60.63 16.936 60.354 16.948C60.09 16.96 59.904 16.972 59.796 16.984V26.524C59.904 26.536 60.09 26.548 60.354 26.56C60.63 26.572 61.014 26.578 61.506 26.578ZM78.882 28C78.678 27.46 78.486 26.932 78.306 26.416C78.126 25.888 77.94 25.354 77.748 24.814H72.096L70.962 28H69.144C69.624 26.68 70.074 25.462 70.494 24.346C70.914 23.218 71.322 22.15 71.718 21.142C72.126 20.134 72.528 19.174 72.924 18.262C73.32 17.338 73.734 16.426 74.166 15.526H75.768C76.2 16.426 76.614 17.338 77.01 18.262C77.406 19.174 77.802 20.134 78.198 21.142C78.606 22.15 79.02 23.218 79.44 24.346C79.86 25.462 80.31 26.68 80.79 28H78.882ZM77.244 23.374C76.86 22.33 76.476 21.322 76.092 20.35C75.72 19.366 75.33 18.424 74.922 17.524C74.502 18.424 74.1 19.366 73.716 20.35C73.344 21.322 72.972 22.33 72.6 23.374H77.244ZM85.6628 26.758C87.4868 26.758 88.3988 26.134 88.3988 24.886C88.3988 24.502 88.3148 24.178 88.1468 23.914C87.9908 23.638 87.7748 23.404 87.4988 23.212C87.2228 23.008 86.9048 22.834 86.5448 22.69C86.1968 22.546 85.8248 22.402 85.4288 22.258C84.9728 22.102 84.5408 21.928 84.1328 21.736C83.7248 21.532 83.3708 21.298 83.0708 21.034C82.7708 20.758 82.5308 20.434 82.3508 20.062C82.1828 19.69 82.0988 19.24 82.0988 18.712C82.0988 17.62 82.4708 16.768 83.2148 16.156C83.9588 15.544 84.9848 15.238 86.2928 15.238C87.0488 15.238 87.7328 15.322 88.3448 15.49C88.9688 15.646 89.4248 15.82 89.7128 16.012L89.1548 17.434C88.9028 17.278 88.5248 17.128 88.0208 16.984C87.5288 16.828 86.9528 16.75 86.2928 16.75C85.9568 16.75 85.6448 16.786 85.3568 16.858C85.0688 16.93 84.8168 17.038 84.6008 17.182C84.3848 17.326 84.2108 17.512 84.0788 17.74C83.9588 17.956 83.8988 18.214 83.8988 18.514C83.8988 18.85 83.9648 19.132 84.0968 19.36C84.2288 19.588 84.4148 19.792 84.6548 19.972C84.8948 20.14 85.1708 20.296 85.4828 20.44C85.8068 20.584 86.1608 20.728 86.5448 20.872C87.0848 21.088 87.5768 21.304 88.0208 21.52C88.4768 21.736 88.8668 21.994 89.1908 22.294C89.5268 22.594 89.7848 22.954 89.9648 23.374C90.1448 23.782 90.2348 24.28 90.2348 24.868C90.2348 25.96 89.8328 26.8 89.0288 27.388C88.2368 27.976 87.1148 28.27 85.6628 28.27C85.1708 28.27 84.7148 28.234 84.2948 28.162C83.8868 28.102 83.5208 28.03 83.1968 27.946C82.8728 27.85 82.5908 27.754 82.3508 27.658C82.1228 27.55 81.9428 27.46 81.8108 27.388L82.3328 25.948C82.6088 26.104 83.0288 26.278 83.5928 26.47C84.1568 26.662 84.8468 26.758 85.6628 26.758ZM100.679 15.526V17.038H96.7549V28H95.0089V17.038H91.0849V15.526H100.679ZM108.625 22.78C108.817 23.02 109.057 23.338 109.345 23.734C109.645 24.118 109.951 24.55 110.263 25.03C110.575 25.498 110.881 25.99 111.181 26.506C111.493 27.022 111.757 27.52 111.973 28H110.065C109.825 27.544 109.561 27.082 109.273 26.614C108.997 26.146 108.715 25.702 108.427 25.282C108.139 24.85 107.851 24.448 107.563 24.076C107.287 23.704 107.035 23.38 106.807 23.104C106.651 23.116 106.489 23.122 106.321 23.122C106.165 23.122 106.003 23.122 105.835 23.122H104.269V28H102.523V15.706C103.015 15.586 103.561 15.508 104.161 15.472C104.773 15.424 105.331 15.4 105.835 15.4C107.587 15.4 108.919 15.73 109.831 16.39C110.755 17.05 111.217 18.034 111.217 19.342C111.217 20.17 110.995 20.878 110.551 21.466C110.119 22.054 109.477 22.492 108.625 22.78ZM105.979 16.93C105.235 16.93 104.665 16.948 104.269 16.984V21.682H105.511C106.111 21.682 106.651 21.652 107.131 21.592C107.611 21.532 108.013 21.418 108.337 21.25C108.673 21.082 108.931 20.848 109.111 20.548C109.291 20.236 109.381 19.828 109.381 19.324C109.381 18.856 109.291 18.466 109.111 18.154C108.931 17.842 108.685 17.596 108.373 17.416C108.073 17.236 107.713 17.11 107.293 17.038C106.885 16.966 106.447 16.93 105.979 16.93ZM122.687 28C122.483 27.46 122.291 26.932 122.111 26.416C121.931 25.888 121.745 25.354 121.553 24.814H115.901L114.767 28H112.949C113.429 26.68 113.879 25.462 114.299 24.346C114.719 23.218 115.127 22.15 115.523 21.142C115.931 20.134 116.333 19.174 116.729 18.262C117.125 17.338 117.539 16.426 117.971 15.526H119.573C120.005 16.426 120.419 17.338 120.815 18.262C121.211 19.174 121.607 20.134 122.003 21.142C122.411 22.15 122.825 23.218 123.245 24.346C123.665 25.462 124.115 26.68 124.595 28H122.687ZM121.049 23.374C120.665 22.33 120.281 21.322 119.897 20.35C119.525 19.366 119.135 18.424 118.727 17.524C118.307 18.424 117.905 19.366 117.521 20.35C117.149 21.322 116.777 22.33 116.405 23.374H121.049ZM132.39 22.78C132.582 23.02 132.822 23.338 133.11 23.734C133.41 24.118 133.716 24.55 134.028 25.03C134.34 25.498 134.646 25.99 134.946 26.506C135.258 27.022 135.522 27.52 135.738 28H133.83C133.59 27.544 133.326 27.082 133.038 26.614C132.762 26.146 132.48 25.702 132.192 25.282C131.904 24.85 131.616 24.448 131.328 24.076C131.052 23.704 130.8 23.38 130.572 23.104C130.416 23.116 130.254 23.122 130.086 23.122C129.93 23.122 129.768 23.122 129.6 23.122H128.034V28H126.288V15.706C126.78 15.586 127.326 15.508 127.926 15.472C128.538 15.424 129.096 15.4 129.6 15.4C131.352 15.4 132.684 15.73 133.596 16.39C134.52 17.05 134.982 18.034 134.982 19.342C134.982 20.17 134.76 20.878 134.316 21.466C133.884 22.054 133.242 22.492 132.39 22.78ZM129.744 16.93C129 16.93 128.43 16.948 128.034 16.984V21.682H129.276C129.876 21.682 130.416 21.652 130.896 21.592C131.376 21.532 131.778 21.418 132.102 21.25C132.438 21.082 132.696 20.848 132.876 20.548C133.056 20.236 133.146 19.828 133.146 19.324C133.146 18.856 133.056 18.466 132.876 18.154C132.696 17.842 132.45 17.596 132.138 17.416C131.838 17.236 131.478 17.11 131.058 17.038C130.65 16.966 130.212 16.93 129.744 16.93Z" fill="white"/>
</svg>
