<svg width="16" height="17" viewBox="0 0 16 17" fill="none" xmlns="http://www.w3.org/2000/svg">
<path fill-rule="evenodd" clip-rule="evenodd" d="M5 0.549805H11C13.761 0.549805 16 2.79632 16 5.56659V11.5867C16 14.357 13.761 16.6035 11 16.6035H5C2.239 16.6035 0 14.357 0 11.5867V5.56659C0 2.79632 2.239 0.549805 5 0.549805ZM11 15.0979C12.93 15.0979 14.5 13.5227 14.5 11.5862V5.56604C14.5 3.62956 12.93 2.05429 11 2.05429H5C3.07 2.05429 1.5 3.62956 1.5 5.56604V11.5862C1.5 13.5227 3.07 15.0979 5 15.0979H11ZM4 8.57678C4 6.36037 5.791 4.56336 8 4.56336C10.209 4.56336 12 6.36037 12 8.57678C12 10.7932 10.209 12.5902 8 12.5902C5.791 12.5902 4 10.7932 4 8.57678ZM5.5 8.57623C5.5 9.95886 6.622 11.0846 8 11.0846C9.378 11.0846 10.5 9.95886 10.5 8.57623C10.5 7.19261 9.378 6.06784 8 6.06784C6.622 6.06784 5.5 7.19261 5.5 8.57623ZM12.833 4.26198C12.833 4.55715 12.5944 4.79642 12.3 4.79642C12.0057 4.79642 11.767 4.55715 11.767 4.26198C11.767 3.96682 12.0057 3.72755 12.3 3.72755C12.5944 3.72755 12.833 3.96682 12.833 4.26198Z" fill="#B0B8BC"/>
</svg>
